<?xml version="1.0" encoding="UTF-8" standalone="no"?><!DOCTYPE svg PUBLIC "-//W3C//DTD SVG 1.1//EN" "http://www.w3.org/Graphics/SVG/1.1/DTD/svg11.dtd"><svg width="100%" height="100%" viewBox="0 0 863 888" version="1.1" xmlns="http://www.w3.org/2000/svg" xmlns:xlink="http://www.w3.org/1999/xlink" xml:space="preserve" xmlns:serif="http://www.serif.com/" style="fill-rule:evenodd;clip-rule:evenodd;stroke-linejoin:round;stroke-miterlimit:2;"><g><path d="M530.827,33.607c7.585,-9.586 23.503,-24.006 54.122,-31.88c-0,0 -3.305,26.856 -24.244,62.234c18.707,34.764 17.016,88.027 -8.015,138.097c-34.774,69.561 -101.51,106.787 -148.937,83.078c-47.427,-23.708 -57.699,-99.432 -22.925,-168.993c34.774,-69.561 101.511,-106.787 148.937,-83.078c0.356,0.178 0.71,0.358 1.062,0.542Z"/><path d="M221.476,97.126c6.436,-9.856 21.495,-26.497 53.595,-36.63c0,0 -1.702,24.844 -18.613,59.053c22.595,29.067 26.012,80.445 5.442,130.439c-26.656,64.786 -83.564,102.873 -127.002,85c-43.438,-17.873 -57.062,-84.98 -30.406,-149.766c24.649,-59.907 75.165,-96.985 116.984,-88.096Z"/><path d="M771.09,211.943c-38.527,-8.611 -89.349,7.418 -130.787,45.054c-57.568,52.286 -75.364,126.602 -39.715,165.852c35.649,39.25 111.329,28.666 168.898,-23.62c57.568,-52.286 75.364,-126.602 39.715,-165.852c-0.267,-0.295 -0.537,-0.586 -0.809,-0.876c7.178,-9.894 16.757,-29.118 16.06,-60.725c-0,-0 -24.962,10.443 -53.362,40.167Z"/><path d="M807.814,523.013c-34.093,-13.895 -84.482,-3.294 -127.053,30.028c-55.165,43.179 -76.447,108.265 -47.496,145.253c28.952,36.988 97.244,31.961 152.409,-11.219c51.011,-39.928 73.05,-98.587 53.186,-136.446c7.748,-8.86 19.699,-27.858 20.775,-61.502c-0,-0 -23.458,8.356 -51.821,33.886Z"/><path d="M89.569,421.751c49.251,-14.007 88.831,-1.575 126.422,-11.096c37.59,-9.521 87.422,-52.546 157.59,-56.569c70.167,-4.023 166.264,79.76 161.026,159.689c-5.239,79.93 -19.434,94.761 -15.791,123.095c3.642,28.335 22.006,89.776 20.334,122.144c-1.671,32.368 -17.067,65.52 -27.394,77.334c-10.327,11.814 -30.362,39.606 -85.236,49.293c-54.873,9.687 -124.384,-57.338 -194.025,-137.685c-69.642,-80.348 -229.898,-70.501 -230.29,-209.517c-0.205,-72.942 38.114,-102.68 87.364,-116.688Z"/></g></svg>