<?xml version="1.0" encoding="UTF-8" standalone="no"?><!DOCTYPE svg PUBLIC "-//W3C//DTD SVG 1.1//EN" "http://www.w3.org/Graphics/SVG/1.1/DTD/svg11.dtd"><svg width="100%" height="100%" viewBox="0 0 794 550" version="1.1" xmlns="http://www.w3.org/2000/svg" xmlns:xlink="http://www.w3.org/1999/xlink" xml:space="preserve" xmlns:serif="http://www.serif.com/" style="fill-rule:evenodd;clip-rule:evenodd;stroke-linejoin:round;stroke-miterlimit:2;"><path id="newSpiritQuote" d="M198.877,2.028c-112.58,-0 -198.276,73.933 -198.276,162.989c0,73.933 42.008,100.818 87.376,120.982c31.926,16.803 72.253,26.885 72.253,60.491c0,31.925 -28.565,67.212 -62.171,92.416c-23.524,20.164 -47.049,33.606 -47.049,62.171c0,28.566 21.844,48.729 53.77,48.729c100.818,0 272.209,-186.513 272.209,-362.945c0,-122.662 -60.491,-184.833 -178.112,-184.833Zm415.035,-0c-112.581,-0 -198.276,73.933 -198.276,162.989c0,73.933 42.008,100.818 87.376,120.982c31.925,16.803 72.253,26.885 72.253,60.491c-0,31.925 -28.565,67.212 -62.171,92.416c-23.525,20.164 -47.049,33.606 -47.049,62.171c0,28.566 21.844,48.729 53.77,48.729c100.818,0 272.209,-186.513 272.209,-362.945c-0,-122.662 -60.491,-184.833 -178.112,-184.833Z" style="fill:#60a5fa;fill-rule:nonzero;"/></svg>