<?xml version="1.0" encoding="UTF-8" standalone="no"?><!DOCTYPE svg PUBLIC "-//W3C//DTD SVG 1.1//EN" "http://www.w3.org/Graphics/SVG/1.1/DTD/svg11.dtd"><svg width="100%" height="100%" viewBox="0 0 541 535" version="1.1" xmlns="http://www.w3.org/2000/svg" xmlns:xlink="http://www.w3.org/1999/xlink" xml:space="preserve" xmlns:serif="http://www.serif.com/" style="fill-rule:evenodd;clip-rule:evenodd;stroke-linejoin:round;stroke-miterlimit:2;"><path d="M89.569,68.626c49.251,-14.007 88.831,-1.575 126.422,-11.096c37.59,-9.521 87.422,-52.546 157.59,-56.569c70.167,-4.023 166.264,79.76 161.026,159.689c-5.239,79.93 -19.434,94.761 -15.791,123.095c3.642,28.335 22.006,89.776 20.334,122.144c-1.671,32.368 -17.067,65.52 -27.394,77.334c-10.327,11.814 -30.362,39.606 -85.236,49.293c-54.873,9.687 -124.384,-57.338 -194.025,-137.685c-69.642,-80.348 -229.898,-70.501 -230.29,-209.517c-0.205,-72.942 38.114,-102.68 87.364,-116.688Z"/></svg>