<?xml version="1.0" encoding="UTF-8" standalone="no"?><!DOCTYPE svg PUBLIC "-//W3C//DTD SVG 1.1//EN" "http://www.w3.org/Graphics/SVG/1.1/DTD/svg11.dtd"><svg width="100%" height="100%" viewBox="0 0 3334 2711" version="1.1" xmlns="http://www.w3.org/2000/svg" xmlns:xlink="http://www.w3.org/1999/xlink" xml:space="preserve" xmlns:serif="http://www.serif.com/" style="fill-rule:evenodd;clip-rule:evenodd;stroke-linejoin:round;stroke-miterlimit:2;"><path id="backingPaw-blue-pair-R" d="M1008.58,1054.29c-0.667,-0.358 -1.354,-0.708 -2.021,-1.052c-90.354,-46.015 -217.5,26.233 -283.75,161.238c-66.25,135.006 -46.688,281.972 43.667,327.985c90.354,46.015 217.5,-26.233 283.75,-161.24c47.687,-97.177 50.916,-200.55 15.27,-268.02c39.896,-68.663 46.188,-120.786 46.188,-120.786c-58.333,15.283 -88.646,43.269 -103.104,61.875Zm-589.375,123.277c-79.667,-17.25 -175.917,54.711 -222.875,170.979c-50.792,125.738 -24.834,255.98 57.937,290.669c82.75,34.688 191.167,-39.231 241.959,-164.971c39.187,-97.029 32.666,-196.743 -10.375,-253.156c32.229,-66.394 35.458,-114.612 35.458,-114.612c-61.146,19.666 -89.833,51.964 -102.104,71.091Zm797.937,310.281c-109.666,101.478 -143.583,245.711 -75.666,321.888c67.937,76.177 212.112,55.635 321.791,-45.842c109.677,-101.477 143.581,-245.71 75.665,-321.887c-0.509,-0.573 -1.023,-1.138 -1.542,-1.7c13.675,-19.202 31.925,-56.513 30.598,-117.856c0,-0 -47.558,20.266 -101.665,77.956c-73.402,-16.713 -170.227,14.398 -249.181,87.441Zm319.146,516.29c-64.952,-26.969 -160.954,-6.394 -242.058,58.277c-105.109,83.8 -145.65,210.133 -90.484,281.904c55.155,71.792 185.263,62.042 290.361,-21.771c97.185,-77.5 139.175,-191.333 101.329,-264.814c14.762,-17.196 37.531,-54.067 39.581,-119.363c0,0 -44.691,16.217 -98.729,65.767Zm-1228.42,-210.454c-42.729,-0.465 -88.583,-0.965 -139.979,13.921c-93.812,27.187 -166.833,84.904 -166.437,226.471c0.479,169.347 120.937,224.868 243.396,281.306c72.625,33.479 145.958,67.271 195.354,125.333c132.666,155.938 265.104,286.021 369.646,267.208c97.041,-17.437 136.895,-65.166 157.854,-90.27c1.625,-1.938 3.125,-3.75 4.541,-5.396c19.667,-22.917 49,-87.271 52.188,-150.084c2.062,-40.687 -11.875,-105.02 -23.854,-160.25c-6.5,-30.062 -12.438,-57.416 -14.896,-76.812c-3.271,-26 1.042,-46.146 7.562,-76.563c7.271,-33.895 17.271,-80.57 22.542,-162.341c9.979,-155.127 -173.104,-317.736 -306.792,-309.927c-86.166,5.031 -156.229,41.504 -214.312,71.748c-32.063,16.683 -60.458,31.473 -85.917,38.041c-32.416,8.361 -65.583,8 -100.896,7.615Zm2398.62,-1730.44c-0.671,-0.357 -1.346,-0.707 -2.025,-1.052c-90.354,-46.015 -217.5,26.234 -283.752,161.239c-66.25,135.006 -46.679,281.973 43.677,327.985c90.357,46.015 217.502,-26.235 283.752,-161.24c47.69,-97.177 50.911,-200.55 15.271,-268.02c39.892,-68.663 46.188,-120.785 46.188,-120.785c-58.334,15.282 -88.661,43.268 -103.111,61.873Zm-589.371,123.279c-79.672,-17.252 -175.914,54.71 -222.877,170.978c-50.783,125.738 -24.827,255.98 57.93,290.669c82.758,34.688 191.179,-39.233 241.962,-164.971c39.19,-97.029 32.679,-196.743 -10.367,-253.158c32.219,-66.392 35.461,-114.61 35.461,-114.61c-61.156,19.666 -89.846,51.963 -102.109,71.092Zm797.944,310.281c-109.679,101.477 -143.583,245.71 -75.664,321.887c67.916,76.177 212.102,55.635 321.781,-45.842c109.677,-101.477 143.582,-245.71 75.664,-321.887c-0.509,-0.573 -1.023,-1.138 -1.541,-1.7c13.675,-19.204 31.925,-56.515 30.597,-117.856c-0,-0 -47.557,20.266 -101.665,77.956c-73.401,-16.713 -170.226,14.396 -249.172,87.442Zm319.138,516.287c-64.953,-26.967 -160.954,-6.392 -242.059,58.279c-105.1,83.802 -145.645,210.123 -90.489,281.911c55.16,71.785 185.269,62.029 290.367,-21.775c97.186,-77.492 139.174,-191.34 101.329,-264.817c14.762,-17.196 37.531,-54.067 39.581,-119.365c-0,0 -44.692,16.219 -98.729,65.767Zm-1228.42,-210.452c-42.731,-0.465 -88.588,-0.965 -139.965,13.921c-93.831,27.187 -166.835,84.902 -166.446,226.471c0.469,169.356 120.942,224.877 243.394,281.31c72.629,33.473 145.954,67.267 195.352,125.323c132.679,155.94 265.111,286.021 369.652,267.221c97.046,-17.452 136.898,-65.181 157.854,-90.279c1.619,-1.94 3.125,-3.744 4.538,-5.39c19.675,-22.929 49.006,-87.271 52.19,-150.092c2.062,-40.675 -11.88,-105.008 -23.848,-160.237c-6.515,-30.067 -12.446,-57.436 -14.892,-76.821c-3.281,-26.004 1.035,-46.148 7.554,-76.565c7.267,-33.902 17.269,-80.568 22.531,-162.339c9.98,-155.127 -173.104,-317.736 -306.785,-309.927c-86.154,5.031 -156.217,41.504 -214.317,71.748c-32.05,16.683 -60.458,31.473 -85.921,38.041c-32.402,8.361 -65.581,8 -100.891,7.615Z" style="fill:#b1d3fd;"/></svg>