<?xml version="1.0" encoding="UTF-8" standalone="no"?><!DOCTYPE svg PUBLIC "-//W3C//DTD SVG 1.1//EN" "http://www.w3.org/Graphics/SVG/1.1/DTD/svg11.dtd"><svg width="100%" height="100%" viewBox="0 0 1636 1719" version="1.1" xmlns="http://www.w3.org/2000/svg" xmlns:xlink="http://www.w3.org/1999/xlink" xml:space="preserve" xmlns:serif="http://www.serif.com/" style="fill-rule:evenodd;clip-rule:evenodd;stroke-linejoin:round;stroke-miterlimit:2;"><path id="backingPaw-gray-single-L" d="M628.292,63.296c0.671,-0.357 1.346,-0.706 2.025,-1.051c90.354,-46.015 217.5,26.234 283.752,161.238c66.25,135.006 46.679,281.973 -43.677,327.986c-90.356,46.014 -217.502,-26.236 -283.752,-161.24c-47.689,-97.177 -50.91,-200.55 -15.271,-268.021c-39.891,-68.662 -46.187,-120.785 -46.187,-120.785c58.333,15.282 88.66,43.269 103.11,61.873Zm589.371,123.279c79.673,-17.251 175.915,54.71 222.877,170.979c50.783,125.737 24.827,255.979 -57.929,290.669c-82.758,34.687 -191.179,-39.234 -241.963,-164.971c-39.189,-97.029 -32.679,-196.744 10.367,-253.158c-32.219,-66.393 -35.46,-114.611 -35.46,-114.611c61.156,19.667 89.846,51.964 102.108,71.092Zm-797.944,310.281c109.679,101.477 143.584,245.71 75.665,321.888c-67.917,76.177 -212.102,55.635 -321.781,-45.842c-109.678,-101.477 -143.582,-245.711 -75.664,-321.888c0.508,-0.573 1.023,-1.137 1.541,-1.7c-13.676,-19.204 -31.925,-56.514 -30.597,-117.856c-0,0 47.557,20.267 101.664,77.956c73.401,-16.712 170.226,14.396 249.172,87.442Zm-319.138,516.288c64.954,-26.967 160.955,-6.392 242.059,58.279c105.1,83.802 145.646,210.123 90.49,281.91c-55.161,71.786 -185.269,62.029 -290.368,-21.775c-97.185,-77.492 -139.174,-191.339 -101.329,-264.817c-14.761,-17.195 -37.53,-54.066 -39.58,-119.364c-0,-0 44.691,16.219 98.728,65.767Zm1228.42,-210.453c42.731,-0.464 88.587,-0.964 139.964,13.921c93.832,27.188 166.836,84.902 166.446,226.471c-0.469,169.356 -120.942,224.877 -243.394,281.311c-72.629,33.472 -145.954,67.266 -195.352,125.322c-132.679,155.94 -265.11,286.021 -369.652,267.221c-97.046,-17.452 -136.898,-65.181 -157.854,-90.279c-1.619,-1.939 -3.125,-3.744 -4.537,-5.389c-19.675,-22.93 -49.007,-87.271 -52.19,-150.092c-2.063,-40.675 11.879,-105.008 23.848,-160.238c6.514,-30.066 12.446,-57.435 14.892,-76.82c3.281,-26.005 -1.036,-46.148 -7.555,-76.565c-7.266,-33.902 -17.268,-80.569 -22.531,-162.34c-9.979,-155.127 173.104,-317.735 306.786,-309.927c86.154,5.032 156.216,41.504 214.316,71.748c32.05,16.684 60.459,31.473 85.921,38.042c32.402,8.36 65.581,8 100.892,7.614Z" style="fill:#f5f7fa;"/></svg>