<?xml version="1.0" encoding="UTF-8" standalone="no"?><!DOCTYPE svg PUBLIC "-//W3C//DTD SVG 1.1//EN" "http://www.w3.org/Graphics/SVG/1.1/DTD/svg11.dtd"><svg width="100%" height="100%" viewBox="0 0 1636 1719" version="1.1" xmlns="http://www.w3.org/2000/svg" xmlns:xlink="http://www.w3.org/1999/xlink" xml:space="preserve" xmlns:serif="http://www.serif.com/" style="fill-rule:evenodd;clip-rule:evenodd;stroke-linejoin:round;stroke-miterlimit:2;"><path id="backingPaw-blue-single-R" d="M1007.13,63.257c-0.667,-0.358 -1.355,-0.708 -2.021,-1.052c-90.354,-46.014 -217.5,26.234 -283.75,161.238c-66.25,135.006 -46.688,281.973 43.666,327.985c90.355,46.015 217.5,-26.233 283.75,-161.239c47.688,-97.177 50.917,-200.55 15.271,-268.021c39.896,-68.663 46.188,-120.786 46.188,-120.786c-58.334,15.284 -88.646,43.269 -103.104,61.875Zm-589.375,123.277c-79.667,-17.25 -175.917,54.711 -222.875,170.98c-50.792,125.737 -24.834,255.979 57.937,290.668c82.75,34.688 191.167,-39.231 241.958,-164.97c39.188,-97.03 32.667,-196.744 -10.375,-253.157c32.23,-66.393 35.459,-114.612 35.459,-114.612c-61.146,19.666 -89.834,51.964 -102.104,71.091Zm797.937,310.282c-109.667,101.477 -143.583,245.71 -75.667,321.887c67.938,76.177 212.113,55.636 321.792,-45.841c109.677,-101.478 143.581,-245.711 75.665,-321.888c-0.509,-0.573 -1.023,-1.137 -1.542,-1.7c13.675,-19.202 31.925,-56.512 30.598,-117.856c-0,-0 -47.558,20.266 -101.665,77.956c-73.402,-16.712 -170.227,14.398 -249.181,87.442Zm319.146,516.289c-64.952,-26.968 -160.954,-6.393 -242.058,58.277c-105.109,83.8 -145.65,210.134 -90.484,281.905c55.154,71.791 185.263,62.041 290.361,-21.771c97.185,-77.5 139.175,-191.334 101.329,-264.815c14.762,-17.196 37.531,-54.067 39.581,-119.362c0,-0 -44.692,16.216 -98.729,65.766Zm-1228.42,-210.454c-42.729,-0.464 -88.583,-0.964 -139.979,13.921c-93.812,27.187 -166.833,84.904 -166.437,226.471c0.479,169.348 120.937,224.869 243.395,281.306c72.625,33.479 145.959,67.271 195.355,125.333c132.666,155.938 265.104,286.021 369.645,267.209c97.042,-17.438 136.896,-65.167 157.855,-90.271c1.625,-1.938 3.125,-3.75 4.541,-5.396c19.667,-22.917 49,-87.271 52.188,-150.083c2.062,-40.688 -11.875,-105.021 -23.854,-160.25c-6.5,-30.063 -12.438,-57.417 -14.896,-76.813c-3.271,-26 1.041,-46.146 7.562,-76.562c7.271,-33.896 17.271,-80.571 22.542,-162.342c9.979,-155.127 -173.104,-317.735 -306.792,-309.927c-86.166,5.031 -156.229,41.504 -214.312,71.748c-32.063,16.683 -60.459,31.473 -85.917,38.042c-32.417,8.36 -65.583,8 -100.896,7.614Z" style="fill:#b1d3fd;"/></svg>