<?xml version="1.0" encoding="UTF-8" standalone="no"?><!DOCTYPE svg PUBLIC "-//W3C//DTD SVG 1.1//EN" "http://www.w3.org/Graphics/SVG/1.1/DTD/svg11.dtd"><svg width="100%" height="100%" viewBox="0 0 3334 2711" version="1.1" xmlns="http://www.w3.org/2000/svg" xmlns:xlink="http://www.w3.org/1999/xlink" xml:space="preserve" xmlns:serif="http://www.serif.com/" style="fill-rule:evenodd;clip-rule:evenodd;stroke-linejoin:round;stroke-miterlimit:2;"><path id="backingPaw-blue-pair-L" d="M2325.81,1053.12c0.667,-0.358 1.354,-0.708 2.021,-1.052c90.354,-46.014 217.5,26.234 283.75,161.238c66.25,135.006 46.687,281.973 -43.667,327.985c-90.354,46.015 -217.5,-26.233 -283.75,-161.239c-47.687,-97.177 -50.916,-200.55 -15.271,-268.021c-39.895,-68.663 -46.187,-120.786 -46.187,-120.786c58.333,15.284 88.646,43.269 103.104,61.875Zm589.375,123.278c79.667,-17.25 175.917,54.71 222.875,170.979c50.792,125.737 24.833,255.979 -57.937,290.668c-82.75,34.688 -191.167,-39.231 -241.959,-164.97c-39.187,-97.03 -32.666,-196.744 10.375,-253.157c-32.229,-66.393 -35.458,-114.612 -35.458,-114.612c61.146,19.667 89.833,51.964 102.104,71.092Zm-797.937,310.281c109.666,101.477 143.583,245.71 75.666,321.887c-67.937,76.177 -212.112,55.636 -321.791,-45.841c-109.677,-101.477 -143.582,-245.711 -75.665,-321.888c0.508,-0.573 1.023,-1.137 1.542,-1.7c-13.675,-19.202 -31.925,-56.512 -30.598,-117.856c-0,-0 47.558,20.267 101.664,77.956c73.402,-16.712 170.227,14.398 249.182,87.442Zm-319.146,516.289c64.952,-26.968 160.954,-6.393 242.058,58.277c105.108,83.8 145.65,210.134 90.483,281.905c-55.154,71.791 -185.262,62.041 -290.36,-21.771c-97.185,-77.5 -139.175,-191.334 -101.329,-264.815c-14.763,-17.196 -37.531,-54.066 -39.581,-119.362c-0,-0 44.691,16.216 98.729,65.766Zm1228.42,-210.454c42.73,-0.464 88.584,-0.964 139.98,13.921c93.812,27.188 166.833,84.904 166.437,226.471c-0.479,169.348 -120.937,224.869 -243.396,281.306c-72.625,33.479 -145.958,67.271 -195.354,125.333c-132.667,155.938 -265.104,286.021 -369.646,267.209c-97.041,-17.438 -136.896,-65.167 -157.854,-90.271c-1.625,-1.938 -3.125,-3.75 -4.542,-5.396c-19.666,-22.917 -49,-87.271 -52.187,-150.083c-2.063,-40.688 11.875,-105.021 23.854,-160.25c6.5,-30.063 12.438,-57.417 14.896,-76.813c3.271,-26 -1.042,-46.146 -7.563,-76.562c-7.27,-33.896 -17.27,-80.571 -22.541,-162.342c-9.979,-155.127 173.104,-317.735 306.791,-309.927c86.167,5.031 156.23,41.504 214.313,71.748c32.062,16.683 60.458,31.473 85.917,38.042c32.416,8.36 65.583,8 100.895,7.614Zm-2398.62,-1730.44c0.67,-0.357 1.345,-0.706 2.025,-1.052c90.354,-46.014 217.5,26.234 283.752,161.239c66.25,135.006 46.679,281.973 -43.677,327.985c-90.357,46.015 -217.503,-26.235 -283.753,-161.239c-47.689,-97.177 -50.91,-200.551 -15.27,-268.021c-39.892,-68.662 -46.188,-120.785 -46.188,-120.785c58.333,15.282 88.661,43.269 103.111,61.873Zm589.37,123.279c79.673,-17.252 175.915,54.71 222.877,170.979c50.784,125.737 24.828,255.979 -57.929,290.669c-82.758,34.687 -191.179,-39.234 -241.962,-164.971c-39.19,-97.029 -32.679,-196.744 10.366,-253.159c-32.218,-66.392 -35.46,-114.61 -35.46,-114.61c61.156,19.666 89.846,51.963 102.108,71.092Zm-797.943,310.281c109.679,101.477 143.583,245.71 75.664,321.887c-67.916,76.177 -212.102,55.636 -321.781,-45.841c-109.677,-101.477 -143.582,-245.711 -75.664,-321.888c0.509,-0.573 1.023,-1.137 1.541,-1.7c-13.675,-19.204 -31.925,-56.514 -30.597,-117.856c-0,-0 47.557,20.267 101.664,77.956c73.402,-16.712 170.227,14.396 249.173,87.442Zm-319.138,516.287c64.953,-26.966 160.954,-6.391 242.058,58.28c105.1,83.802 145.646,210.122 90.49,281.91c-55.16,71.785 -185.269,62.029 -290.368,-21.775c-97.185,-77.492 -139.173,-191.34 -101.329,-264.817c-14.761,-17.196 -37.53,-54.066 -39.58,-119.364c0,-0 44.692,16.218 98.729,65.766Zm1228.42,-210.452c42.731,-0.464 88.588,-0.964 139.965,13.921c93.831,27.188 166.835,84.902 166.445,226.471c-0.468,169.356 -120.941,224.877 -243.393,281.31c-72.629,33.473 -145.954,67.267 -195.352,125.323c-132.68,155.94 -265.111,286.021 -369.652,267.221c-97.046,-17.452 -136.898,-65.181 -157.855,-90.279c-1.618,-1.94 -3.125,-3.744 -4.537,-5.39c-19.675,-22.929 -49.006,-87.27 -52.19,-150.091c-2.062,-40.675 11.879,-105.009 23.848,-160.238c6.515,-30.066 12.446,-57.435 14.892,-76.821c3.281,-26.004 -1.036,-46.148 -7.554,-76.564c-7.267,-33.902 -17.269,-80.569 -22.532,-162.34c-9.979,-155.127 173.105,-317.735 306.786,-309.927c86.154,5.031 156.217,41.504 214.317,71.748c32.05,16.683 60.458,31.473 85.92,38.042c32.402,8.36 65.582,8 100.892,7.614Z" style="fill:#b1d3fd;"/></svg>