<?xml version="1.0" encoding="UTF-8" standalone="no"?><!DOCTYPE svg PUBLIC "-//W3C//DTD SVG 1.1//EN" "http://www.w3.org/Graphics/SVG/1.1/DTD/svg11.dtd"><svg width="100%" height="100%" viewBox="0 0 4690 203" version="1.1" xmlns="http://www.w3.org/2000/svg" xmlns:xlink="http://www.w3.org/1999/xlink" xml:space="preserve" xmlns:serif="http://www.serif.com/" style="fill-rule:evenodd;clip-rule:evenodd;stroke-linejoin:round;stroke-miterlimit:2;"><path id="squiggle-long-blue400" d="M4646.88,54.462c18.541,-3.571 36.493,8.582 40.064,27.123c3.571,18.54 -8.583,36.492 -27.123,40.063l-318.201,61.287c-175.626,33.82 -357.195,17.671 -524.074,-46.608l-42.443,-16.348c-177.866,-68.512 -374.842,-68.512 -552.708,-0c-193.694,74.609 -408.2,74.609 -601.894,-0c-177.865,-68.512 -374.842,-68.512 -552.707,-0c-193.694,74.609 -408.201,74.609 -601.895,-0c-177.865,-68.512 -374.842,-68.512 -552.707,0l-42.442,16.347c-166.881,64.28 -348.45,80.429 -524.057,46.609l-318.219,-61.287c-18.54,-3.571 -30.694,-21.522 -27.123,-40.063c3.571,-18.54 21.522,-30.694 40.063,-27.123l318.219,61.287c163.029,31.397 331.595,16.406 486.524,-43.271l42.442,-16.347c193.694,-74.609 408.2,-74.609 601.894,-0c177.865,68.511 374.842,68.511 552.707,-0c193.694,-74.609 408.2,-74.609 601.895,-0c177.865,68.511 374.842,68.511 552.707,-0c193.694,-74.609 408.2,-74.609 601.894,-0l42.442,16.347c154.929,59.677 323.495,74.668 486.544,43.27l318.198,-61.286Z" style="fill:#60a5fa;"/></svg>