<?xml version="1.0" encoding="UTF-8" standalone="no"?><!DOCTYPE svg PUBLIC "-//W3C//DTD SVG 1.1//EN" "http://www.w3.org/Graphics/SVG/1.1/DTD/svg11.dtd"><svg width="100%" height="100%" viewBox="0 0 2821 203" version="1.1" xmlns="http://www.w3.org/2000/svg" xmlns:xlink="http://www.w3.org/1999/xlink" xml:space="preserve" xmlns:serif="http://www.serif.com/" style="fill-rule:evenodd;clip-rule:evenodd;stroke-linejoin:round;stroke-miterlimit:2;"><path id="squiggle-short-teal300" d="M2772.55,54.512c18.442,-6.147 38.405,3.834 44.552,22.276c6.147,18.442 -3.834,38.406 -22.276,44.553l-177.721,59.239c-114.854,38.286 -240.954,21.4 -341.694,-45.759l-26.381,-17.588c-92.149,-61.431 -212.191,-61.431 -304.339,-0c-115.805,77.205 -266.678,77.205 -382.489,-0c-92.144,-61.431 -212.19,-61.431 -304.338,-0c-115.806,77.205 -266.678,77.205 -382.489,-0c-92.144,-61.431 -212.19,-61.431 -304.339,-0l-26.381,17.588c-100.738,67.158 -226.838,84.045 -341.695,45.76l-177.72,-59.24c-18.442,-6.148 -28.423,-26.111 -22.276,-44.553c6.147,-18.442 26.111,-28.423 44.553,-22.276l177.719,59.24c94.235,31.411 197.693,17.556 280.344,-37.544l26.382,-17.588c115.81,-77.206 266.683,-77.205 382.488,-0c92.148,61.43 212.194,61.431 304.339,-0c115.811,-77.206 266.683,-77.205 382.488,-0c92.148,61.43 212.195,61.431 304.339,-0c115.811,-77.206 266.678,-77.206 382.489,0l26.381,17.588c82.652,55.1 186.11,68.955 280.343,37.544l177.721,-59.24Z" style="fill:#5eead4;"/></svg>