<?xml version="1.0" encoding="UTF-8" standalone="no"?><!DOCTYPE svg PUBLIC "-//W3C//DTD SVG 1.1//EN" "http://www.w3.org/Graphics/SVG/1.1/DTD/svg11.dtd"><svg width="100%" height="100%" viewBox="0 0 2819 203" version="1.1" xmlns="http://www.w3.org/2000/svg" xmlns:xlink="http://www.w3.org/1999/xlink" xml:space="preserve" xmlns:serif="http://www.serif.com/" style="fill-rule:evenodd;clip-rule:evenodd;stroke-linejoin:round;stroke-miterlimit:2;"><path id="squiggle-short-amber400" d="M2772.12,53.995c18.442,-6.147 38.406,3.835 44.553,22.277c6.147,18.442 -3.835,38.405 -22.277,44.552l-177.72,59.24c-114.854,38.286 -240.954,21.399 -341.695,-45.759l-26.381,-17.589c-92.148,-61.431 -212.19,-61.431 -304.338,-0c-115.806,77.205 -266.678,77.206 -382.489,0c-92.145,-61.431 -212.191,-61.431 -304.338,-0c-115.806,77.205 -266.678,77.206 -382.49,0c-92.144,-61.431 -212.19,-61.431 -304.338,0l-26.381,17.589c-100.738,67.158 -226.838,84.045 -341.696,45.759l-177.719,-59.24c-18.442,-6.147 -28.424,-26.11 -22.276,-44.552c6.147,-18.442 26.11,-28.424 44.552,-22.277l177.72,59.24c94.234,31.411 197.693,17.557 280.344,-37.543l26.381,-17.589c115.811,-77.205 266.683,-77.205 382.488,0c92.149,61.431 212.195,61.431 304.339,0c115.811,-77.205 266.684,-77.205 382.489,0c92.148,61.431 212.194,61.431 304.339,0c115.81,-77.205 266.678,-77.205 382.489,0.001l26.38,17.588c82.652,55.099 186.111,68.955 280.343,37.543l177.721,-59.24Z" style="fill:#fbbf24;"/></svg>