<?xml version="1.0" encoding="UTF-8" standalone="no"?><!DOCTYPE svg PUBLIC "-//W3C//DTD SVG 1.1//EN" "http://www.w3.org/Graphics/SVG/1.1/DTD/svg11.dtd"><svg width="100%" height="100%" viewBox="0 0 203 4688" version="1.1" xmlns="http://www.w3.org/2000/svg" xmlns:xlink="http://www.w3.org/1999/xlink" xml:space="preserve" xmlns:serif="http://www.serif.com/" style="fill-rule:evenodd;clip-rule:evenodd;stroke-linejoin:round;stroke-miterlimit:2;"><path id="squiggle-tall-teal300" d="M146.497,4646.68c3.571,18.541 -8.582,36.492 -27.123,40.063c-18.54,3.571 -36.492,-8.582 -40.063,-27.122l-61.287,-318.201c-33.82,-175.626 -17.671,-357.195 46.608,-524.075l16.348,-42.443c68.512,-177.865 68.512,-374.842 0,-552.707c-74.608,-193.694 -74.608,-408.2 0,-601.894c68.512,-177.866 68.512,-374.842 0,-552.708c-74.608,-193.694 -74.608,-408.2 0,-601.894c68.512,-177.865 68.512,-374.842 0,-552.707l-16.347,-42.443c-64.28,-166.88 -80.429,-348.449 -46.609,-524.056l61.287,-318.219c3.571,-18.54 21.522,-30.694 40.063,-27.123c18.54,3.571 30.694,21.522 27.123,40.063l-61.287,318.219c-31.397,163.029 -16.406,331.595 43.271,486.523l16.347,42.442c74.609,193.694 74.609,408.201 0,601.895c-68.511,177.865 -68.511,374.842 0,552.707c74.609,193.694 74.609,408.2 0,601.894c-68.511,177.866 -68.511,374.842 0,552.708c74.609,193.694 74.609,408.2 0,601.893l-16.347,42.443c-59.677,154.929 -74.668,323.495 -43.27,486.544l61.286,318.198Z" style="fill:#5eead4;"/></svg>